HIERARCHY
ROOT Hips
{
	OFFSET 0.000000 71.427986 0.000000
	CHANNELS 6 Xposition Yposition Zposition Xrotation Yrotation Zrotation
	JOINT Pelvis
	{
		OFFSET 0.000000 0.000000 0.000000
		CHANNELS 3 Xrotation Yrotation Zrotation
		JOINT LeftUpLeg
		{
			OFFSET 6.797100 -2.508499 -1.318700
			CHANNELS 3 Xrotation Yrotation Zrotation
			JOINT LeftLeg
			{
				OFFSET 0.069008 -29.241863 0.690200
				CHANNELS 3 Xrotation Yrotation Zrotation
				JOINT LeftFoot
				{
					OFFSET -0.069008 -29.568123 -0.266800
					CHANNELS 3 Xrotation Yrotation Zrotation
					JOINT LeftToeBase
					{
						OFFSET 3.145500 -8.631000 16.059900
						CHANNELS 3 Xrotation Yrotation Zrotation
						End Site
						{
							OFFSET 0.000000 18.501587 0.000000
						}
					}
				}
			}
			JOINT Left_ShortSleeve
			{
				OFFSET 0.265923 -10.480953 1.153800
				CHANNELS 3 Xrotation Yrotation Zrotation
				End Site
				{
					OFFSET 1.725763 19.823879 0.000000
				}
			}
		}
		JOINT RightUpLeg
		{
			OFFSET -6.797100 -2.508499 -1.318700
			CHANNELS 3 Xrotation Yrotation Zrotation
			JOINT RightLeg
			{
				OFFSET -0.082453 -29.241932 0.688000
				CHANNELS 3 Xrotation Yrotation Zrotation
				JOINT RightFoot
				{
					OFFSET 0.082453 -29.568058 -0.264600
					CHANNELS 3 Xrotation Yrotation Zrotation
					JOINT RightToeBase
					{
						OFFSET -3.115300 -8.682800 16.113400
						CHANNELS 3 Xrotation Yrotation Zrotation
						End Site
						{
							OFFSET 0.000000 18.567114 0.000000
						}
					}
				}
			}
			JOINT Right_ShortSleeve
			{
				OFFSET -0.265923 -10.480953 1.153800
				CHANNELS 3 Xrotation Yrotation Zrotation
				End Site
				{
					OFFSET -1.725766 19.823910 0.000000
				}
			}
		}
	}
	JOINT Spine
	{
		OFFSET 0.000000 13.368103 0.470500
		CHANNELS 3 Xrotation Yrotation Zrotation
		JOINT Spine1
		{
			OFFSET 0.147000 13.837402 0.538800
			CHANNELS 3 Xrotation Yrotation Zrotation
			JOINT Spine2
			{
				OFFSET 0.168000 16.242897 -1.435500
				CHANNELS 3 Xrotation Yrotation Zrotation
				JOINT Neck
				{
					OFFSET 0.217200 18.631500 -1.679100
					CHANNELS 3 Xrotation Yrotation Zrotation
					JOINT Head
					{
						OFFSET 0.000000 6.599396 1.385900
						CHANNELS 3 Xrotation Yrotation Zrotation
						JOINT Hat
						{
							OFFSET -0.532200 27.220596 -10.096100
							CHANNELS 3 Xrotation Yrotation Zrotation
							End Site
							{
								OFFSET 0.000000 22.029861 0.000000
							}
						}
						JOINT HairD
						{
							OFFSET -10.777400 17.437393 -1.325900
							CHANNELS 3 Xrotation Yrotation Zrotation
							JOINT HairD1
							{
								OFFSET -3.290299 -11.051193 1.062200
								CHANNELS 3 Xrotation Yrotation Zrotation
								End Site
								{
									OFFSET 0.000000 11.579437 0.000000
								}
							}
						}
						JOINT HairB
						{
							OFFSET -10.777400 17.437393 1.467900
							CHANNELS 3 Xrotation Yrotation Zrotation
							JOINT HairB1
							{
								OFFSET -1.561200 -12.956299 3.590200
								CHANNELS 3 Xrotation Yrotation Zrotation
								End Site
								{
									OFFSET 0.000000 13.534866 0.000000
								}
							}
						}
						JOINT HairA
						{
							OFFSET 9.713100 17.437393 1.467900
							CHANNELS 3 Xrotation Yrotation Zrotation
							JOINT HairA1
							{
								OFFSET 1.561200 -12.956299 3.590200
								CHANNELS 3 Xrotation Yrotation Zrotation
								End Site
								{
									OFFSET 0.000000 13.534866 0.000000
								}
							}
						}
						JOINT HairC
						{
							OFFSET 9.713100 17.437393 -1.325900
							CHANNELS 3 Xrotation Yrotation Zrotation
							JOINT HairC1
							{
								OFFSET 3.290300 -11.051193 1.062200
								CHANNELS 3 Xrotation Yrotation Zrotation
								End Site
								{
									OFFSET 0.000000 11.579437 0.000000
								}
							}
						}
					}
				}
				JOINT LeftShoulder
				{
					OFFSET 5.101800 15.108002 -2.763700
					CHANNELS 3 Xrotation Yrotation Zrotation
					JOINT LeftArm
					{
						OFFSET 9.825497 2.506317 -1.597400
						CHANNELS 3 Xrotation Yrotation Zrotation
						JOINT LeftForeArm
						{
							OFFSET 21.966244 0.000000 0.000000
							CHANNELS 3 Xrotation Yrotation Zrotation
							JOINT LeftHand
							{
								OFFSET 33.879036 0.000000 0.000000
								CHANNELS 3 Xrotation Yrotation Zrotation
								JOINT LeftHandThumb1
								{
									OFFSET 6.715286 -2.359680 3.363841
									CHANNELS 3 Xrotation Yrotation Zrotation
									JOINT LeftHandThumb2
									{
										OFFSET 2.507072 -1.447464 1.447461
										CHANNELS 3 Xrotation Yrotation Zrotation
										JOINT LeftHandThumb3
										{
											OFFSET 2.898338 -1.673355 1.673357
											CHANNELS 3 Xrotation Yrotation Zrotation
											End Site
											{
												OFFSET -0.295959 3.727692 -0.131651
											}
										}
									}
								}
								JOINT LeftHandIndex1
								{
									OFFSET 14.190811 -0.254547 3.840278
									CHANNELS 3 Xrotation Yrotation Zrotation
									JOINT LeftHandIndex2
									{
										OFFSET 3.551727 0.000000 -0.000000
										CHANNELS 3 Xrotation Yrotation Zrotation
										JOINT LeftHandIndex3
										{
											OFFSET 2.894196 0.000000 0.000000
											CHANNELS 3 Xrotation Yrotation Zrotation
											End Site
											{
												OFFSET -1.000603 2.690872 0.366626
											}
										}
									}
								}
								JOINT LeftHandMiddle1
								{
									OFFSET 13.776489 0.000000 0.000000
									CHANNELS 3 Xrotation Yrotation Zrotation
									JOINT LeftHandMiddle2
									{
										OFFSET 3.438232 0.000000 0.000000
										CHANNELS 3 Xrotation Yrotation Zrotation
										JOINT LeftHandMiddle3
										{
											OFFSET 3.691551 0.000000 0.000000
											CHANNELS 3 Xrotation Yrotation Zrotation
											End Site
											{
												OFFSET -1.082298 3.499527 0.457670
											}
										}
									}
								}
								JOINT LeftHandRing1
								{
									OFFSET 13.966164 -0.268127 -3.067488
									CHANNELS 3 Xrotation Yrotation Zrotation
									JOINT LeftHandRing2
									{
										OFFSET 3.162567 0.000000 0.000000
										CHANNELS 3 Xrotation Yrotation Zrotation
										JOINT LeftHandRing3
										{
											OFFSET 3.324348 0.000000 0.000000
											CHANNELS 3 Xrotation Yrotation Zrotation
											End Site
											{
												OFFSET -0.861900 3.184998 0.405154
											}
										}
									}
								}
								JOINT LeftHandPinky1
								{
									OFFSET 13.131393 -0.168503 -5.746925
									CHANNELS 3 Xrotation Yrotation Zrotation
									JOINT LeftHandPinky2
									{
										OFFSET 2.849182 0.000000 0.000000
										CHANNELS 3 Xrotation Yrotation Zrotation
										JOINT LeftHandPinky3
										{
											OFFSET 2.805038 0.000000 0.000000
											CHANNELS 3 Xrotation Yrotation Zrotation
											End Site
											{
												OFFSET -0.882500 2.642609 0.325652
											}
										}
									}
								}
							}
							JOINT Left_Sleeve
							{
								OFFSET 6.592125 -0.646545 0.805568
								CHANNELS 3 Xrotation Yrotation Zrotation
								End Site
								{
									OFFSET -0.000179 20.275787 -0.000000
								}
							}
						}
					}
				}
				JOINT RightShoulder
				{
					OFFSET -5.731700 15.108002 -2.763700
					CHANNELS 3 Xrotation Yrotation Zrotation
					JOINT RightArm
					{
						OFFSET -9.825497 2.506317 -1.597400
						CHANNELS 3 Xrotation Yrotation Zrotation
						JOINT RightForeArm
						{
							OFFSET -21.966242 0.000000 0.000000
							CHANNELS 3 Xrotation Yrotation Zrotation
							JOINT RightHand
							{
								OFFSET -33.879032 0.000000 0.000000
								CHANNELS 3 Xrotation Yrotation Zrotation
								JOINT RightHandThumb1
								{
									OFFSET -6.715286 -2.359680 3.363841
									CHANNELS 3 Xrotation Yrotation Zrotation
									JOINT RightHandThumb2
									{
										OFFSET -2.507072 -1.447464 1.447461
										CHANNELS 3 Xrotation Yrotation Zrotation
										JOINT RightHandThumb3
										{
											OFFSET -2.898338 -1.673355 1.673357
											CHANNELS 3 Xrotation Yrotation Zrotation
											End Site
											{
												OFFSET 0.295959 3.727692 -0.131651
											}
										}
									}
								}
								JOINT RightHandIndex1
								{
									OFFSET -14.190811 -0.254547 3.840278
									CHANNELS 3 Xrotation Yrotation Zrotation
									JOINT RightHandIndex2
									{
										OFFSET -3.551727 0.000000 -0.000000
										CHANNELS 3 Xrotation Yrotation Zrotation
										JOINT RightHandIndex3
										{
											OFFSET -2.894196 0.000000 0.000000
											CHANNELS 3 Xrotation Yrotation Zrotation
											End Site
											{
												OFFSET 1.000603 2.690872 0.366626
											}
										}
									}
								}
								JOINT RightHandMiddle1
								{
									OFFSET -13.776489 0.000000 0.000000
									CHANNELS 3 Xrotation Yrotation Zrotation
									JOINT RightHandMiddle2
									{
										OFFSET -3.438232 0.000000 0.000000
										CHANNELS 3 Xrotation Yrotation Zrotation
										JOINT RightHandMiddle3
										{
											OFFSET -3.691551 0.000000 0.000000
											CHANNELS 3 Xrotation Yrotation Zrotation
											End Site
											{
												OFFSET 1.082298 3.499527 0.457670
											}
										}
									}
								}
								JOINT RightHandRing1
								{
									OFFSET -13.966164 -0.268127 -3.067488
									CHANNELS 3 Xrotation Yrotation Zrotation
									JOINT RightHandRing2
									{
										OFFSET -3.162567 0.000000 0.000000
										CHANNELS 3 Xrotation Yrotation Zrotation
										JOINT RightHandRing3
										{
											OFFSET -3.324348 0.000000 0.000000
											CHANNELS 3 Xrotation Yrotation Zrotation
											End Site
											{
												OFFSET 0.861900 3.184998 0.405154
											}
										}
									}
								}
								JOINT RightHandPinky1
								{
									OFFSET -13.131393 -0.168503 -5.746925
									CHANNELS 3 Xrotation Yrotation Zrotation
									JOINT RightHandPinky2
									{
										OFFSET -2.849182 0.000000 0.000000
										CHANNELS 3 Xrotation Yrotation Zrotation
										JOINT RightHandPinky3
										{
											OFFSET -2.805038 0.000000 0.000000
											CHANNELS 3 Xrotation Yrotation Zrotation
											End Site
											{
												OFFSET 0.882500 2.642609 0.325652
											}
										}
									}
								}
							}
							JOINT Right_Sleeve
							{
								OFFSET -6.592125 -0.646545 0.805568
								CHANNELS 3 Xrotation Yrotation Zrotation
								End Site
								{
									OFFSET 0.000179 20.275787 -0.000000
								}
							}
						}
					}
				}
				JOINT Bind_Right_JacketString
				{
					OFFSET -3.534800 11.969597 7.200700
					CHANNELS 3 Xrotation Yrotation Zrotation
					JOINT Bind_Right_JacketString1
					{
						OFFSET -0.319900 -6.102600 2.794100
						CHANNELS 3 Xrotation Yrotation Zrotation
						End Site
						{
							OFFSET 0.000000 6.719452 0.000000
						}
					}
				}
				JOINT Bind_Left_JacketString
				{
					OFFSET 2.904800 11.969597 7.200700
					CHANNELS 3 Xrotation Yrotation Zrotation
					JOINT Bind_Left_JacketString1
					{
						OFFSET 0.364800 -5.904503 3.186800
						CHANNELS 3 Xrotation Yrotation Zrotation
						End Site
						{
							OFFSET 0.000000 6.719513 0.000000
						}
					}
				}
				JOINT HairE
				{
					OFFSET 5.915200 17.612701 -11.592200
					CHANNELS 3 Xrotation Yrotation Zrotation
					JOINT HairE1
					{
						OFFSET 0.289200 -7.171898 -1.284500
						CHANNELS 3 Xrotation Yrotation Zrotation
						End Site
						{
							OFFSET 0.000000 7.291756 0.000000
						}
					}
				}
				JOINT HairF
				{
					OFFSET -0.864800 17.612701 -11.592200
					CHANNELS 3 Xrotation Yrotation Zrotation
					JOINT HairF1
					{
						OFFSET 0.000000 -14.087097 -2.127501
						CHANNELS 3 Xrotation Yrotation Zrotation
						End Site
						{
							OFFSET 0.000000 14.246841 0.000000
						}
					}
				}
				JOINT HairG
				{
					OFFSET -8.087700 17.612701 -11.592200
					CHANNELS 3 Xrotation Yrotation Zrotation
					JOINT HairG1
					{
						OFFSET -0.293600 -6.081398 -0.910100
						CHANNELS 3 Xrotation Yrotation Zrotation
						End Site
						{
							OFFSET 0.000000 6.156120 0.000000
						}
					}
				}
			}
		}
	}
	JOINT Pouch
	{
		OFFSET 0.000000 4.394501 10.847300
		CHANNELS 3 Xrotation Yrotation Zrotation
		End Site
		{
			OFFSET 0.000000 21.880577 0.000000
		}
	}
	JOINT Bag
	{
		OFFSET -13.229000 4.813004 -0.593300
		CHANNELS 3 Xrotation Yrotation Zrotation
		End Site
		{
			OFFSET 0.000000 21.880577 0.000000
		}
	}
	JOINT OccupyGuyFacialAnim_Joint
	{
		OFFSET 1.000000 -70.206398 -1.655000
		CHANNELS 3 Xrotation Yrotation Zrotation
		End Site
		{
			OFFSET 0.000000 21.880577 0.000000
		}
	}
}
MOTION
Frames: 4
Frame Time: 0.033333
77.509499 10.569885 -2.634431 -56.508935 8.434420 -104.680593 -0.000001 0.000001 -0.000001 -43.330211 3.969521 50.287131 74.708698 1.856156 -13.726984 19.104034 -1.956610 -29.397387 -0.000000 0.000000 0.000001 0.000001 -0.000002 -0.000000 -8.568832 0.232096 3.204807 31.147749 9.800903 0.941760 16.719060 4.470866 14.199419 0.000002 -0.000003 0.000003 -0.000000 0.000002 0.000000 21.826216 0.150472 -2.860381 4.416074 0.371147 2.818177 4.408476 0.797263 2.724831 41.803954 3.268685 -10.791413 -7.200008 6.597017 -5.705263 -0.000001 0.000002 -0.000002 -0.000001 0.000002 -0.000002 -0.000001 0.000002 -0.000001 -0.000001 0.000002 -0.000000 -0.000002 0.000002 -0.000000 -0.000001 0.000002 -0.000000 -0.000002 0.000002 -0.000000 -0.000001 0.000002 -0.000002 -0.000001 0.000002 -0.000002 2.855556 -6.349118 10.777016 21.887234 -22.788474 6.063071 92.468986 -0.594714 33.969393 -58.032996 24.416220 -3.094286 40.109951 -15.297120 -0.360502 5.639824 28.097935 11.338847 0.000001 0.000001 -0.000003 6.882271 2.840085 -61.140397 8.247980 7.640028 -89.897871 -0.000000 0.000000 -0.000000 -2.345511 4.688887 -62.655204 8.754139 9.897077 -87.051294 0.000003 0.000000 -0.000003 -9.042464 10.045655 -60.766171 8.524095 9.508834 -66.893022 0.000001 0.000003 -0.000001 -17.946908 14.755017 -51.485846 8.868446 8.667056 -84.811962 0.000000 -0.000001 -0.000001 0.000001 0.000002 -0.000003 0.775888 10.408802 15.238874 31.546571 -14.221426 57.563673 0.169202 32.776032 1.971682 3.955302 27.678472 0.993886 -2.803238 -5.648229 10.142705 5.112584 -33.448888 -9.665770 -0.000001 -0.000001 -0.000001 -0.174109 0.817436 14.128325 -0.007409 0.002724 17.943356 0.000001 0.000001 -0.000001 0.320444 -5.808342 15.139357 1.410509 -4.167748 37.295889 0.000001 -0.000001 -0.000001 1.194244 -11.627941 16.534544 1.758255 -3.722180 39.989033 0.000002 -0.000001 0.000002 2.170797 -19.056680 23.611950 3.176566 -2.044423 31.348335 -0.000001 0.000000 -0.000001 -0.000002 0.000001 0.000001 -0.000000 -0.000002 -0.000000 0.000002 0.000001 -0.000002 -0.000000 -0.000002 0.000000 -0.000000 -0.000002 0.000000 -0.000000 -0.000002 -0.000000 0.000002 0.000001 -0.000002 -0.000000 -0.000002 0.000000 -0.000000 -0.000002 0.000000 -0.000000 -0.000002 -0.000000 0.000002 0.000001 -0.000002 -0.000001 0.000001 -0.000001 -0.000001 0.000001 -0.000001 -0.000001 0.000001 -0.000001 
79.278709 10.948326 -1.526777 -56.362199 6.719212 -105.621916 0.000000 0.000001 -0.000002 -42.393393 7.918097 52.248594 74.223673 6.817126 -15.757467 20.961166 -3.222648 -27.454946 0.000002 -0.000000 0.000000 -0.000003 0.000001 -0.000000 -13.625731 -1.570031 -1.844622 37.331191 3.139901 0.282004 16.653628 3.670936 6.361677 0.000002 0.000001 -0.000002 -0.000002 -0.000004 -0.000000 19.408442 -1.522113 -0.230683 0.775954 -1.897961 -1.130471 0.784929 -2.019321 -0.907753 32.229446 6.771866 -11.660290 -10.626325 12.461194 -14.907921 -0.000003 0.000000 -0.000000 -0.000003 0.000000 -0.000000 -0.000003 0.000000 0.000000 -0.000003 0.000000 -0.000001 0.000000 0.000003 -0.000001 -0.000003 0.000000 -0.000001 0.000000 0.000003 -0.000001 -0.000003 0.000000 -0.000000 -0.000003 0.000000 -0.000000 12.842111 -23.153884 24.699776 53.127626 1.332179 -7.500197 96.849596 -0.929178 46.744473 -78.977272 28.717786 -1.586302 40.109941 -15.297115 -0.360505 5.639824 28.097937 11.338849 0.000002 -0.000000 0.000003 6.882271 2.840087 -61.140404 8.247980 7.640031 -89.897878 -0.000003 0.000002 -0.000002 -2.345509 4.688887 -62.655204 8.754141 9.897077 -87.051301 0.000001 -0.000001 -0.000005 -9.042461 10.045654 -60.766171 8.524094 9.508830 -66.893015 -0.000001 0.000001 0.000003 -17.946908 14.755019 -51.485836 8.868447 8.667055 -84.811968 -0.000002 -0.000000 0.000001 0.000001 -0.000001 0.000005 0.412900 9.957218 17.807183 33.499561 -16.712083 52.201210 -11.634511 31.396908 9.686866 -3.513379 20.845719 20.093413 -1.945983 -7.159548 10.642047 5.472148 -33.460571 -9.992993 0.000001 -0.000001 -0.000000 0.963850 -1.808959 14.415983 0.283394 -0.815427 20.019920 0.000004 -0.000001 0.000002 0.646811 -6.725006 20.060387 1.614499 -4.513159 35.875552 0.000000 0.000002 -0.000002 1.391932 -12.719189 21.707098 2.083120 -4.157490 39.676275 -0.000000 0.000003 0.000000 2.171943 -19.902640 30.298808 3.291781 -2.097923 30.554312 0.000001 0.000002 -0.000001 0.000006 -0.000000 -0.000002 0.000001 -0.000000 0.000000 0.000001 -0.000000 0.000002 0.000001 -0.000000 0.000000 0.000001 -0.000000 0.000000 0.000001 -0.000000 0.000000 0.000001 -0.000000 0.000002 0.000001 -0.000000 0.000000 0.000001 -0.000000 0.000000 0.000001 -0.000000 0.000000 0.000001 -0.000000 0.000002 0.000000 0.000001 -0.000002 0.000000 0.000001 -0.000002 0.000000 0.000001 -0.000002 
80.444000 11.413040 -1.232752 -58.765855 5.621338 -104.239922 -0.000000 0.000000 -0.000000 -40.819891 12.747028 54.811715 73.166072 7.455049 -18.404985 23.188921 -4.424736 -26.392430 -0.000001 0.000001 -0.000001 -0.000002 0.000000 0.000001 -19.005176 -0.519389 -6.125738 43.710277 -6.952914 -1.284577 13.807252 2.429793 -6.444927 -0.000002 0.000000 -0.000002 0.000002 -0.000001 -0.000001 16.761882 -2.338960 -1.027478 -1.100534 -2.068217 -3.421024 -1.096749 -2.441401 -3.183306 26.529601 8.929566 -12.436733 -15.588525 14.105559 -13.144400 -0.000000 0.000001 -0.000002 -0.000000 0.000001 -0.000002 -0.000000 0.000001 -0.000001 -0.000000 0.000001 -0.000001 0.000001 0.000001 -0.000001 -0.000000 0.000001 -0.000001 0.000001 0.000001 -0.000001 -0.000000 0.000001 -0.000002 -0.000000 0.000001 -0.000002 16.510288 -26.807166 28.452821 61.106827 4.053603 -14.179678 97.870764 -0.990749 49.726642 -83.608735 29.884516 -1.009325 40.109938 -15.297115 -0.360505 5.639825 28.097935 11.338846 -0.000001 0.000001 -0.000001 6.882271 2.840088 -61.140404 8.247987 7.640024 -89.897878 0.000002 -0.000000 0.000003 -2.345509 4.688886 -62.655204 8.754135 9.897079 -87.051294 -0.000001 -0.000001 -0.000001 -9.042458 10.045653 -60.766171 8.524093 9.508834 -66.893015 -0.000000 0.000001 0.000001 -17.946903 14.755019 -51.485833 8.868447 8.667058 -84.811968 -0.000003 0.000001 -0.000001 0.000002 0.000000 0.000001 0.616171 10.542538 12.023227 38.714076 -18.738901 58.052564 -22.859011 32.605595 16.053537 -2.733884 15.629921 21.474661 -2.514817 -7.813609 8.745570 5.620491 -32.277411 -10.362275 0.000001 -0.000001 0.000000 2.558794 -5.390143 14.786212 0.723547 -1.920037 21.164359 -0.000005 0.000000 0.000000 1.268456 -7.885109 25.101280 1.841891 -5.012492 32.227175 0.000003 -0.000001 -0.000001 1.865984 -14.156745 26.384054 2.487049 -4.770683 37.546516 0.000000 -0.000000 -0.000002 2.619881 -21.065036 37.463526 3.354536 -2.144813 28.910941 0.000001 -0.000000 -0.000001 0.000001 0.000000 -0.000001 0.000000 -0.000002 -0.000000 -0.000000 -0.000001 -0.000001 0.000000 -0.000002 -0.000002 0.000000 -0.000002 -0.000002 0.000000 -0.000002 -0.000000 -0.000000 -0.000001 -0.000000 0.000000 -0.000002 -0.000002 0.000000 -0.000002 -0.000002 0.000000 -0.000002 -0.000000 -0.000000 -0.000001 -0.000000 -0.000000 0.000000 -0.000000 -0.000000 0.000000 -0.000000 -0.000000 0.000000 -0.000000 
81.367096 11.690132 -1.233309 -60.044507 6.641466 -102.956407 -0.000000 0.000002 0.000001 -38.784488 16.740843 55.999471 71.882912 5.300194 -18.669957 22.234873 -5.168998 -29.272220 0.000000 0.000001 -0.000002 -0.000002 -0.000001 0.000000 -20.340015 2.285352 -8.539219 47.916461 -12.776611 -3.896004 13.110836 1.737669 -17.069893 -0.000002 0.000000 -0.000001 0.000004 -0.000001 -0.000000 16.588709 -3.122004 -2.138723 -2.441987 -2.283156 -4.615815 -2.429048 -2.816478 -4.338236 27.959308 10.244594 -11.781394 -18.317884 16.510189 -14.331364 -0.000000 0.000000 -0.000000 -0.000000 0.000000 -0.000000 -0.000000 0.000000 0.000000 -0.000000 0.000000 -0.000002 -0.000000 0.000003 -0.000001 -0.000000 0.000000 -0.000002 -0.000000 0.000003 -0.000001 -0.000000 0.000000 -0.000000 -0.000000 0.000000 -0.000000 15.400050 -26.017850 27.170221 58.770506 4.723166 -13.871272 98.342566 -1.246568 47.788832 -79.612863 29.174873 -2.733637 40.109948 -15.297115 -0.360505 5.639828 28.097933 11.338840 -0.000001 -0.000000 0.000002 6.882270 2.840088 -61.140404 8.247981 7.640031 -89.897878 0.000002 0.000003 0.000000 -2.345510 4.688883 -62.655204 8.754136 9.897079 -87.051294 0.000000 0.000001 -0.000001 -9.042461 10.045654 -60.766171 8.524095 9.508830 -66.893022 -0.000001 0.000002 -0.000001 -17.946909 14.755019 -51.485843 8.868446 8.667058 -84.811968 0.000000 0.000001 0.000003 0.000001 -0.000001 0.000006 1.019117 11.198374 5.173825 39.962238 -18.972476 60.239646 -17.670710 30.305843 12.747226 -2.502898 15.241531 20.212449 -3.584363 -8.053513 6.007358 5.666442 -30.668086 -10.747235 0.000001 -0.000002 -0.000005 4.304705 -9.185029 15.323306 1.216676 -3.086085 21.954950 -0.000000 -0.000001 0.000000 2.155512 -9.084794 30.053102 2.008459 -5.599990 27.907832 -0.000002 0.000001 -0.000001 2.589108 -15.646691 30.751752 2.855481 -5.469796 34.846406 0.000000 0.000000 -0.000002 3.266672 -22.589507 44.443576 3.382379 -2.180696 26.790951 -0.000000 -0.000001 0.000000 -0.000002 -0.000000 0.000001 -0.000000 0.000000 0.000001 -0.000000 0.000002 0.000001 -0.000000 0.000000 0.000001 -0.000000 0.000000 0.000001 -0.000000 0.000000 0.000001 -0.000000 0.000002 0.000001 -0.000000 0.000000 0.000001 -0.000000 0.000000 0.000001 -0.000000 0.000000 0.000001 -0.000000 0.000002 0.000001 -0.000000 0.000002 0.000001 -0.000000 0.000002 0.000001 -0.000000 0.000002 0.000001 
